<svg width="512" height="512" viewBox="0 0 512 512" fill="none" xmlns="http://www.w3.org/2000/svg">
<g clip-path="url(#clip0_20_53)">
<path d="M199.787 328.849L132.096 398.374L101.504 368.593L148.821 319.995H0V277.329H148.565L101.525 228.731L132.117 198.95L200.021 268.689C207.872 276.539 212.309 287.249 212.309 298.662C212.309 310.075 207.872 320.785 199.808 328.849H199.787ZM512 89.6168V511.995H170.667V419.921L213.333 376.081V469.329H256V85.3287H234.667C222.891 85.3287 213.333 94.9074 213.333 106.662V221.243L170.667 177.425V106.683C170.667 71.3981 199.381 42.6834 234.667 42.6834H260.053C263.893 31.8674 270.293 22.0327 279.424 14.5447C294.336 2.32074 313.728 -2.52192 332.565 1.25408L460.565 26.8541C490.347 32.8061 512 59.1954 512 89.5954V89.6168ZM384 255.995C384 238.331 369.664 223.995 352 223.995C334.336 223.995 320 238.331 320 255.995C320 273.659 334.336 287.995 352 287.995C369.664 287.995 384 273.659 384 255.995Z" fill="#6366F1"/>
</g>
<defs>
<clipPath id="clip0_20_53">
<rect width="512" height="512" fill="white"/>
</clipPath>
</defs>
</svg>
