<svg width="24" height="24" viewBox="0 0 24 24" fill="none" xmlns="http://www.w3.org/2000/svg">
<mask id="mask0_17_10" style="mask-type:alpha" maskUnits="userSpaceOnUse" x="0" y="0" width="24" height="24">
<g clip-path="url(#clip0_17_10)">
<path d="M9.365 15.4148L6.192 18.6738L4.758 17.2778L6.976 14.9998H0V12.9998H6.964L4.759 10.7218L6.193 9.32578L9.376 12.5948C9.744 12.9628 9.952 13.4648 9.952 13.9998C9.952 14.5348 9.744 15.0368 9.366 15.4148H9.365ZM24 4.20079V23.9998H8V19.6838L10 17.6288V21.9998H12V3.99978H11C10.448 3.99978 10 4.44878 10 4.99978V10.3708L8 8.31678V5.00078C8 3.34678 9.346 2.00078 11 2.00078H12.19C12.37 1.49378 12.67 1.03278 13.098 0.681785C13.797 0.108785 14.706 -0.118215 15.589 0.0587848L21.589 1.25878C22.985 1.53778 24 2.77478 24 4.19978V4.20079ZM18 11.9998C18 11.1718 17.328 10.4998 16.5 10.4998C15.672 10.4998 15 11.1718 15 11.9998C15 12.8278 15.672 13.4998 16.5 13.4998C17.328 13.4998 18 12.8278 18 11.9998Z" fill="black"/>
</g>
</mask>
<g mask="url(#mask0_17_10)">
<rect x="-10" y="-13" width="47" height="42" fill="#6366F1"/>
</g>
<defs>
<clipPath id="clip0_17_10">
<rect width="24" height="24" fill="white"/>
</clipPath>
</defs>
</svg>
