<svg width="128" height="128" viewBox="0 0 128 128" fill="none" xmlns="http://www.w3.org/2000/svg">
<mask id="mask0_1_5" style="mask-type:alpha" maskUnits="userSpaceOnUse" x="0" y="0" width="128" height="128">
<g clip-path="url(#clip0_1_5)">
<path d="M85.3333 64C97.0933 64 106.667 73.5733 106.667 85.3333C106.667 97.0933 97.0933 106.667 85.3333 106.667C73.5733 106.667 64 97.0933 64 85.3333C64 73.5733 73.5733 64 85.3333 64ZM41.7067 35.952L46.592 33.248C45.8133 31.1947 45.3333 28.9867 45.3333 26.6667C45.3333 24.3467 45.8133 22.1387 46.592 20.0853L41.7067 17.3813C40.416 16.6667 39.952 15.0453 40.6667 13.7547C41.376 12.4693 43.0027 12 44.2933 12.7147L49.1947 15.4293C52.0907 11.6213 56.384 8.98667 61.3333 8.272V2.66667C61.3333 1.19467 62.528 0 64 0C65.472 0 66.6667 1.19467 66.6667 2.66667V8.272C71.6107 8.98667 75.904 11.6213 78.8053 15.4293L83.7067 12.7147C84.992 12 86.6187 12.4693 87.3333 13.7547C88.048 15.0453 87.5787 16.6667 86.2933 17.3813L81.408 20.0853C82.1867 22.1387 82.6667 24.3467 82.6667 26.6667C82.6667 28.9867 82.1867 31.1947 81.408 33.248L86.2933 35.952C87.584 36.6667 88.048 38.288 87.3333 39.5787C86.6187 40.8747 84.9707 41.328 83.7067 40.6187L78.8053 37.904C75.9093 41.712 71.616 44.3467 66.6667 45.0613V50.6667C66.6667 52.1387 65.472 53.3333 64 53.3333C62.528 53.3333 61.3333 52.1387 61.3333 50.6667V45.0613C56.3893 44.3467 52.096 41.712 49.1947 37.904L44.2933 40.6187C43.0293 41.3227 41.3867 40.88 40.6667 39.5787C39.952 38.288 40.4213 36.6667 41.7067 35.952ZM50.6667 26.6667C50.6667 34.016 56.6507 40 64 40C71.3493 40 77.3333 34.016 77.3333 26.6667C77.3333 19.3173 71.3493 13.3333 64 13.3333C56.6507 13.3333 50.6667 19.3173 50.6667 26.6667ZM99.5573 45.0987C98.1653 44.6027 96.6453 45.3333 96.1547 46.7253C95.664 48.112 96.3893 49.6373 97.7813 50.128C112.667 55.392 122.672 69.5413 122.672 85.3387C122.672 105.92 105.925 122.672 85.3387 122.672H42.6667C22.08 122.672 5.33333 105.92 5.33333 85.3387C5.33333 69.5413 15.3333 55.392 30.224 50.128C31.6107 49.6373 32.3413 48.1173 31.8507 46.7253C31.3653 45.3333 29.84 44.608 28.448 45.0987C11.4293 51.1093 0 67.28 0 85.3333C0 108.859 19.1413 128 42.6667 128H85.3333C108.859 128 128 108.859 128 85.3333C128 67.28 116.571 51.1093 99.5573 45.0987Z" fill="black"/>
</g>
</mask>
<g mask="url(#mask0_1_5)">
<rect x="-83" y="-53" width="268" height="211" fill="#1F2937"/>
</g>
<defs>
<clipPath id="clip0_1_5">
<rect width="128" height="128" fill="white"/>
</clipPath>
</defs>
</svg>
