<svg width="512" height="512" viewBox="0 0 512 512" fill="none" xmlns="http://www.w3.org/2000/svg">
<g clip-path="url(#clip0_20_23)">
<path d="M506.987 211.072C505.621 210.005 492.651 200.171 465.28 200.171C458.048 200.171 450.88 200.811 443.712 202.027C438.4 165.76 408.448 148.053 407.083 147.264L399.766 143.04L394.966 149.995C388.95 159.381 384.512 169.707 381.931 180.523C377.067 201.237 379.99 220.651 390.528 237.291C377.835 244.395 357.419 246.101 353.344 246.251H16.0002C7.1895 246.251 0.0215034 253.419 0.0215034 262.165C-0.341163 291.691 4.60817 321.067 14.7842 348.8C26.3895 379.264 43.6695 401.685 66.1762 415.445C91.3922 430.848 132.331 439.659 178.774 439.659C199.766 439.723 220.694 437.803 241.259 434.005C269.931 428.779 297.515 418.731 322.816 404.331C343.68 392.213 362.518 376.811 378.496 358.741C405.227 328.491 421.142 294.805 432.96 264.853C434.539 264.853 436.118 264.853 437.696 264.853C466.944 264.853 484.928 253.163 494.891 243.349C501.483 237.12 506.646 229.44 509.931 220.992L512 214.869L506.987 211.072Z" fill="#1F2937"/>
<path d="M47.2533 236.352H92.48C94.6346 236.352 96.4266 234.56 96.4266 232.405V192.149C96.4266 189.995 94.6986 188.203 92.48 188.203H47.2533C45.0986 188.203 43.3066 189.995 43.3066 192.149V232.427C43.3066 234.581 45.0986 236.352 47.2533 236.352Z" fill="#1F2937"/>
<path d="M109.525 236.352H154.752C156.907 236.352 158.699 234.56 158.699 232.405V192.149C158.699 189.995 156.971 188.203 154.752 188.203H109.525C107.307 188.203 105.579 189.995 105.579 192.149V232.427C105.579 234.581 107.371 236.352 109.525 236.352Z" fill="#1F2937"/>
<path d="M172.8 236.352H218.027C220.182 236.352 221.974 234.56 221.974 232.405V192.149C221.974 189.995 220.246 188.203 218.027 188.203H172.8C170.646 188.203 168.854 189.995 168.854 192.149V232.427C168.854 234.581 170.582 236.352 172.8 236.352Z" fill="#1F2937"/>
<path d="M235.307 236.352H280.534C282.688 236.352 284.48 234.56 284.48 232.405V192.149C284.48 189.931 282.688 188.203 280.534 188.203H235.307C233.152 188.203 231.36 189.995 231.36 192.149V232.427C231.36 234.581 233.067 236.352 235.307 236.352Z" fill="#1F2937"/>
<path d="M109.525 178.453H154.752C156.907 178.453 158.699 176.661 158.699 174.507V134.229C158.699 132.075 156.907 130.283 154.752 130.283H109.525C107.371 130.283 105.579 132.075 105.579 134.229V174.507C105.579 176.661 107.371 178.453 109.525 178.453Z" fill="#1F2937"/>
<path d="M172.8 178.453H218.027C220.182 178.453 221.974 176.661 221.974 174.507V134.229C221.974 132.075 220.182 130.283 218.027 130.283H172.8C170.646 130.283 168.854 132.075 168.854 134.229V174.507C168.854 176.661 170.582 178.453 172.8 178.453Z" fill="#1F2937"/>
<path d="M235.307 178.453H280.534C282.752 178.453 284.48 176.661 284.48 174.507V134.229C284.48 132.075 282.688 130.283 280.534 130.283H235.307C233.152 130.283 231.36 132.075 231.36 134.229V174.507C231.36 176.661 233.067 178.453 235.307 178.453Z" fill="#1F2937"/>
<path d="M235.307 120.469H280.534C282.688 120.469 284.48 118.677 284.48 116.523V76.2666C284.48 74.1119 282.688 72.3199 280.534 72.3199H235.307C233.152 72.3199 231.36 74.1119 231.36 76.2666V116.544C231.36 118.763 233.067 120.469 235.307 120.469Z" fill="#1F2937"/>
<path d="M298.283 236.352H343.509C345.664 236.352 347.456 234.56 347.456 232.405V192.149C347.456 189.931 345.664 188.203 343.509 188.203H298.283C296.128 188.203 294.336 189.995 294.336 192.149V232.427C294.357 234.581 296.149 236.352 298.283 236.352Z" fill="#1F2937"/>
</g>
<defs>
<clipPath id="clip0_20_23">
<rect width="512" height="512" fill="white"/>
</clipPath>
</defs>
</svg>
