<svg width="128" height="128" viewBox="0 0 128 128" fill="none" xmlns="http://www.w3.org/2000/svg">
<g clip-path="url(#clip0_4_76)">
<path d="M27.271 0.110224C27.071 0.188224 21.451 3.39022 14.784 7.22222C6.706 11.8662 2.557 14.3122 2.335 14.5422C2.145 14.7672 1.995 15.0242 1.897 15.3022C1.73 15.8662 1.718 98.2872 1.887 98.8802C1.948 99.1102 2.147 99.4482 2.327 99.6342C2.763 100.094 50.991 127.824 51.577 127.958C51.849 128.023 52.154 128.012 52.457 127.928C53.115 127.763 101.217 100.094 101.645 99.6422C101.82 99.4472 102.02 99.1102 102.085 98.8812C102.169 98.6082 102.2 94.3012 102.2 85.2262V71.9662L113.926 65.2312C124.982 58.8742 125.659 58.4762 125.943 58.0402L126.233 57.5702V43.2872C126.233 27.7392 126.263 28.6142 125.648 28.0522C125.483 27.9062 119.85 24.6192 113.118 20.7422L100.89 13.7102H99.531L87.568 20.5802C80.982 24.3682 75.384 27.6072 75.111 27.7832C74.839 27.9632 74.514 28.2952 74.381 28.5362L74.139 28.9532L74.085 42.4082L74.037 55.8682L64.158 61.5582C58.724 64.6822 54.201 67.2682 54.105 67.2922C53.93 67.3412 53.918 66.0602 53.918 41.3262V15.2932L53.658 14.8462C53.332 14.3012 54.794 15.1702 40.114 6.73222C27.803 -0.347776 28.099 -0.199777 27.271 0.110224ZM38.588 10.4172C43.738 13.3722 47.952 15.8172 47.952 15.8472C47.952 15.8782 43.436 18.4882 37.917 21.6602L27.876 27.4252L17.853 21.6612C12.346 18.4882 7.833 15.8782 7.833 15.8472C7.833 15.8172 12.338 13.2072 17.846 10.0422L27.845 4.29022L28.535 4.66622C31.892 6.57322 35.243 8.49022 38.588 10.4172ZM110.256 23.6782C115.678 26.8002 120.164 29.3802 120.206 29.4222C120.32 29.5252 100.432 40.9572 100.16 40.9452C99.888 40.9372 80.245 29.6102 80.253 29.4722C80.263 29.3152 100.026 17.9452 100.226 17.9762C100.317 17.9982 104.833 20.5662 110.256 23.6782ZM16.3 25.3282L25.858 30.8312L25.913 58.0782L25.963 85.3302L26.196 85.6982C26.318 85.8922 26.548 86.1572 26.716 86.2792C26.874 86.3942 32.193 89.4252 38.534 93.0032L50.054 99.5092V111.036C50.054 117.362 50.011 122.552 49.957 122.552C49.916 122.552 39.957 116.853 27.833 109.876L5.793 97.2012L5.763 58.2352L5.744 19.2812L6.234 19.5522C6.517 19.7022 11.041 22.3002 16.299 25.3272L16.3 25.3282ZM50.054 44.5082V69.6172L49.667 69.8702C49.142 70.2022 30 81.2052 29.935 81.2052C29.905 81.2052 29.881 69.8692 29.881 56.0122L29.893 30.8302L39.893 25.0782C45.392 21.9132 49.927 19.3452 49.981 19.3642C50.02 19.3882 50.054 30.7042 50.054 44.5082ZM88.204 38.7332L98.227 44.4962V55.9202C98.227 66.7582 98.216 67.3402 98.051 67.2772C97.944 67.2362 93.409 64.6372 87.968 61.5032L78.058 55.8132V44.3932C78.058 38.1062 78.09 32.9692 78.12 32.9692C78.163 32.9692 82.697 35.5612 88.204 38.7332ZM122.368 44.3202C122.368 50.5742 122.326 55.7322 122.284 55.7822C122.212 55.8972 102.388 67.3202 102.262 67.3202C102.231 67.3202 102.2 62.1852 102.2 55.8972V44.4772L112.2 38.7212C117.707 35.5612 122.242 32.9692 122.284 32.9692C122.337 32.9692 122.368 38.0742 122.368 44.3202ZM95.993 70.9332L52.005 96.0402L32.056 84.6932C32.056 84.6932 76 59.2772 76.176 59.3432L95.993 70.9332ZM98.208 85.7602L98.174 97.2022L76.146 109.878C64.026 116.854 54.064 122.553 54.014 122.553C53.961 122.553 53.919 117.895 53.919 111.037V99.5102L75.999 86.9182C88.131 79.9952 98.1 74.3282 98.153 74.3162C98.196 74.3162 98.215 79.4642 98.207 85.7592L98.208 85.7602Z" fill="#1F2937"/>
</g>
<defs>
<clipPath id="clip0_4_76">
<rect width="128" height="128" fill="white"/>
</clipPath>
</defs>
</svg>
