<svg width="512" height="512" viewBox="0 0 512 512" fill="none" xmlns="http://www.w3.org/2000/svg">
<g clip-path="url(#clip0_5_78)">
<path fill-rule="evenodd" clip-rule="evenodd" d="M116.416 90.8159C110.507 90.8159 106.347 91.5199 102.144 92.5653V93.2693H102.827C105.643 98.8373 110.507 102.677 113.963 107.563C116.757 113.131 119.211 118.677 121.984 124.267C122.325 123.904 122.667 123.541 122.667 123.541C127.573 120.085 130.005 114.496 130.005 106.133C127.915 103.68 127.573 101.269 125.824 98.8159C123.733 95.3386 119.211 93.6106 116.416 90.8159Z" fill="#1F2937"/>
<path fill-rule="evenodd" clip-rule="evenodd" d="M471.616 393.429C443.733 392.725 422.165 395.52 404.053 403.179C398.827 405.269 390.485 405.269 389.76 411.883C392.555 414.656 392.896 419.179 395.349 423.04C399.531 429.995 406.805 439.381 413.44 444.288C420.757 449.856 428.075 455.403 435.733 460.288C449.301 468.672 464.64 473.536 477.845 481.899C485.525 486.763 493.163 493.035 500.864 498.261C504.683 501.035 507.093 505.579 511.979 507.307V506.24C509.525 503.125 508.843 498.581 506.411 495.083C502.933 491.627 499.435 488.469 495.957 485.013C485.845 471.424 473.301 459.605 459.755 449.856C448.597 442.176 424.213 431.723 419.712 418.88C419.712 418.88 419.349 418.517 419.008 418.176C426.667 417.472 435.733 414.677 443.051 412.565C454.869 409.451 465.664 410.155 477.845 407.019C483.435 405.611 489.003 403.861 494.592 402.155V398.997C488.299 392.747 483.797 384.363 477.163 378.453C459.413 363.136 439.893 348.181 419.712 335.616C408.896 328.64 394.965 324.139 383.467 318.208C379.307 316.117 372.352 315.093 369.899 311.573C363.627 303.915 360.128 293.824 355.605 284.757C345.515 265.621 335.744 244.395 327.061 224.171C320.789 210.603 316.971 197.035 309.312 184.491C273.429 125.291 234.432 89.4292 174.549 54.2505C161.685 46.9332 146.368 43.7972 130.005 39.9785C121.28 39.5945 112.597 38.9332 103.893 38.5919C98.304 36.1385 92.7146 29.5252 87.8506 26.3892C67.9893 13.8665 16.832 -13.2908 2.19731 22.5705C-7.21069 45.2265 16.128 67.4985 24.1493 78.9972C30.0586 86.9972 37.7386 96.0639 41.8986 105.109C44.3306 111.019 45.0133 117.291 47.4666 123.541C53.0346 138.859 58.24 155.925 65.5786 170.219C69.3973 177.536 73.5786 185.216 78.4426 191.787C81.2586 195.648 86.1226 197.355 87.168 203.648C82.304 210.603 81.92 221.056 79.1466 229.76C66.624 269.12 71.488 317.867 89.2586 346.752C94.8266 355.456 108.053 374.613 125.824 367.296C141.483 361.045 138.005 341.184 142.528 323.797C143.573 319.595 142.869 316.821 144.96 314.048V314.752C149.824 324.48 154.709 333.867 159.253 343.659C170.048 360.704 188.843 378.475 204.544 390.293C212.885 396.587 219.499 407.36 229.952 411.2V410.155H229.269C227.179 407.04 224.043 405.632 221.269 403.2C214.997 396.928 208.043 389.269 203.157 382.293C188.544 362.795 175.637 341.205 164.16 318.912C158.571 308.096 153.707 296.256 149.184 285.483C147.093 281.323 147.093 275.029 143.616 272.96C138.368 280.619 130.731 287.232 126.912 296.619C120.299 311.616 119.595 330.069 117.141 349.227C115.755 349.589 116.459 349.227 115.755 349.909C104.619 347.136 100.8 335.637 96.5973 325.909C86.1653 301.163 84.3946 261.461 93.4613 232.896C95.8933 225.6 106.368 202.624 102.165 195.648C100.032 188.992 93.0773 185.216 89.2586 179.968C84.736 173.355 79.8293 165.013 76.736 157.675C68.3733 138.176 64.1706 116.587 55.1466 97.0879C50.9653 88.0212 43.6266 78.6132 37.7386 70.2719C31.104 60.8639 23.7866 54.2505 18.56 43.1145C16.832 39.2745 14.4 33.0025 17.1733 28.8425C17.856 26.0479 19.264 25.0025 22.0586 24.2985C26.56 20.4799 39.4666 25.3439 43.968 27.4345C56.8746 32.6399 67.6693 37.5465 78.4426 44.8425C83.328 48.3412 88.5546 54.9545 94.8053 56.7039H102.123C113.259 59.1145 125.803 57.3865 136.256 60.5225C154.688 66.4319 171.413 75.1359 186.389 84.5439C232 113.451 269.611 154.56 295.019 203.648C299.2 211.648 300.971 218.965 304.789 227.307C312.107 244.416 321.173 261.824 328.469 278.507C335.787 294.869 342.763 311.573 353.216 325.184C358.421 332.48 379.328 336.32 388.736 340.16C395.691 343.275 406.485 346.069 412.757 349.888C424.597 357.184 436.416 365.568 447.573 373.589C453.141 377.771 470.571 386.453 471.616 393.429Z" fill="#1F2937"/>
</g>
<defs>
<clipPath id="clip0_5_78">
<rect width="512" height="512" fill="white"/>
</clipPath>
</defs>
</svg>
