<svg width="512" height="512" viewBox="0 0 512 512" fill="none" xmlns="http://www.w3.org/2000/svg">
<path d="M40.512 181.483H116.437C138.731 181.675 154.88 188.096 164.907 200.747C174.912 213.397 178.219 230.677 174.827 252.587C173.504 262.592 170.581 272.427 166.037 282.048C161.685 291.691 155.648 300.373 147.904 308.117C138.453 317.931 128.363 324.181 117.589 326.827C106.816 329.472 95.68 330.795 84.16 330.795H50.1547L39.3813 384.64H0L40.512 181.483ZM73.664 213.781L56.6613 298.773C57.792 298.965 58.9227 299.051 60.0533 299.051C61.376 299.051 62.6987 299.051 64.0213 299.051C82.1547 299.243 97.2587 297.451 109.355 293.675C121.451 289.707 129.557 275.925 133.717 252.309C137.109 232.469 133.717 221.056 123.52 218.027C113.515 214.997 100.949 213.589 85.8453 213.781C83.584 213.973 81.408 214.059 79.3387 214.059C77.4613 214.059 75.4773 214.059 73.3867 214.059L73.664 213.781Z" fill="#1F2937"/>
<path d="M219.669 127.36H258.773L247.723 181.483H282.859C302.123 181.867 316.48 185.835 325.931 193.387C335.573 200.939 338.389 215.296 334.421 236.459L315.435 330.816H275.776L293.909 240.725C295.787 231.275 295.232 224.576 292.203 220.608C289.173 216.64 282.667 214.656 272.661 214.656L241.216 214.379L217.984 330.816H178.88L219.669 127.36Z" fill="#1F2937"/>
<path d="M376.405 181.483H452.331C474.624 181.675 490.773 188.096 500.779 200.747C510.784 213.397 514.091 230.677 510.699 252.587C509.376 262.592 506.453 272.427 501.909 282.048C497.557 291.691 491.52 300.373 483.776 308.117C474.325 317.931 464.235 324.181 453.461 326.827C442.688 329.472 431.552 330.795 420.032 330.795H386.027L375.253 384.619H335.872L376.405 181.483ZM409.557 213.781L392.555 298.773C393.685 298.965 394.816 299.051 395.947 299.051C397.269 299.051 398.592 299.051 399.915 299.051C418.048 299.243 433.152 297.451 445.248 293.675C457.344 289.707 465.451 275.925 469.611 252.309C473.003 232.469 469.611 221.056 459.413 218.027C449.408 214.997 436.843 213.589 421.739 213.781C419.477 213.973 417.301 214.059 415.232 214.059C413.355 214.059 411.371 214.059 409.28 214.059L409.557 213.781Z" fill="#1F2937"/>
</svg>
