<svg width="512" height="512" viewBox="0 0 512 512" fill="none" xmlns="http://www.w3.org/2000/svg">
<g clip-path="url(#clip0_20_42)">
<path d="M252.992 -1.81495e-05C232.107 0.106649 212.16 1.87732 194.624 4.99198C142.933 14.1226 133.547 33.2373 133.547 68.48V115.029H255.701V130.56H133.547H87.7013C52.2027 130.56 21.12 151.893 11.392 192.491C0.170666 239.019 -0.32 268.053 11.392 316.629C20.0747 352.789 40.8107 378.56 76.3093 378.56H118.315V322.752C118.315 282.432 153.195 246.869 194.624 246.869H316.629C350.592 246.869 377.707 218.901 377.707 184.789V68.48C377.707 35.3706 349.781 10.5173 316.629 4.99198C295.637 1.49332 273.856 -0.0853515 252.992 -1.81495e-05ZM186.923 37.44C199.531 37.44 209.835 47.9146 209.835 60.7786C209.835 73.6 199.531 83.9893 186.923 83.9893C174.251 83.9893 164.011 73.6213 164.011 60.7786C164.011 47.9146 174.272 37.44 186.923 37.44Z" fill="#1F2937"/>
<path d="M392.918 130.56V184.811C392.918 226.859 357.27 262.251 316.608 262.251H194.624C161.195 262.251 133.547 290.859 133.547 324.331V440.64C133.547 473.749 162.326 493.205 194.624 502.72C233.28 514.091 270.358 516.139 316.63 502.72C347.371 493.824 377.707 475.904 377.707 440.64V394.091H255.702V378.581H377.707H438.784C474.283 378.581 487.51 353.813 499.862 316.651C512.619 278.379 512.064 241.6 499.862 192.512C491.094 157.163 474.326 130.581 438.784 130.581L392.918 130.56ZM324.31 425.109C336.982 425.109 347.222 435.477 347.222 448.32C347.222 461.205 336.96 471.659 324.31 471.659C311.702 471.659 301.398 461.184 301.398 448.32C301.398 435.477 311.702 425.109 324.31 425.109Z" fill="#1F2937"/>
</g>
<defs>
<clipPath id="clip0_20_42">
<rect width="512" height="512" fill="white"/>
</clipPath>
</defs>
</svg>
