<svg width="512" height="512" viewBox="0 0 512 512" fill="none" xmlns="http://www.w3.org/2000/svg">
<mask id="mask0_4_46" style="mask-type:alpha" maskUnits="userSpaceOnUse" x="0" y="0" width="512" height="512">
<g clip-path="url(#clip0_4_46)">
<path d="M118.741 304.555C118.741 290.389 172.523 282.432 197.547 280.491L199.936 281.877C190.315 283.627 151.723 290.432 151.723 299.307C151.723 308.971 210.923 315.307 245.269 315.307C303.616 315.307 343.296 306.475 353.963 303.573L368.896 312.256C358.677 317.269 314.795 330.368 245.269 330.368C168.021 330.368 118.741 315.264 118.741 304.555ZM236.48 503.552C205.909 503.808 168.576 501.291 137.173 496.021L134.251 497.685C165.547 506.859 209.109 512.405 256.96 511.979C350.955 511.168 427.157 487.851 428.651 459.797L427.563 459.157C421.269 466.859 380.629 502.293 236.48 503.552ZM244.48 485.483C321.408 484.8 407.488 469.76 407.253 444.459C407.211 439.872 404.224 436.715 401.621 434.837L400.363 435.563C393.259 455.168 333.163 469.653 244.352 470.421C187.051 470.933 107.691 457.195 107.541 441.344C107.413 425.429 145.152 416.704 145.152 416.704L142.485 415.147C117.205 418.624 70.592 430.741 70.7413 448.235C70.9547 473.515 178.048 486.059 244.48 485.483ZM417.792 311.317C416.235 340.992 388.821 359.488 361.408 375.083L363.883 376.512C393.131 368.277 445.312 344.32 441.003 307.499C438.848 289.152 422.059 276.011 400.192 276.011C393.365 276.011 387.307 277.205 382.4 278.699L382.379 278.741L381.333 281.344C400.917 277.568 418.795 291.861 417.792 311.317ZM191.808 399.509C182.891 401.28 163.435 405.76 163.435 415.211C163.435 428.309 205.056 438.357 245.248 438.357C300.544 438.357 323.2 424.128 324.224 423.381L301.227 410.069C291.456 412.395 274.965 416.043 245.312 416.043C212.203 416.043 190.635 410.389 190.635 404.181C190.635 402.859 191.467 401.301 192.981 400.149L191.808 399.509ZM327.659 355.328C314.944 358.933 286.293 364.8 245.333 364.8C205.141 364.8 172.288 357.931 172.181 349.824C172.096 344.427 178.624 342.08 178.624 342.08L177.472 341.419C158.208 344.811 140.331 350.08 140.437 357.952C140.608 372.245 195.264 382.955 245.248 382.955C287.744 382.955 328.555 375.829 346.965 366.485L327.659 355.328Z" fill="black"/>
<path d="M316.693 36.6293C316.693 115.413 208.747 145.557 208.747 201.557C208.747 240.875 234.816 265.536 249.259 281.131L248.085 281.813C229.867 270.421 181.952 241.792 181.952 194.496C181.952 128.107 305.963 96.384 305.963 20.9707C305.963 11.6907 304.597 4.56533 303.616 0.746667L304.853 0C308.779 4.928 316.693 17.28 316.693 36.6293ZM352.192 106.389L350.891 105.643C327.403 113.515 255.083 142.059 255.083 195.285C255.083 225.387 284.48 242.069 284.48 270.293C284.48 280.363 278.784 289.813 274.176 295.445L276.501 296.789C288.747 288.832 310.4 271.616 310.4 249.387C310.4 230.549 284.352 207.936 284.352 183.723C284.331 145.6 334.613 115.691 352.192 106.389Z" fill="black"/>
</g>
</mask>
<g mask="url(#mask0_4_46)">
<rect x="-186" y="-154" width="791" height="743" fill="#1F2937"/>
</g>
<defs>
<clipPath id="clip0_4_46">
<rect width="512" height="512" fill="white"/>
</clipPath>
</defs>
</svg>
