<svg width="380" height="363" viewBox="0 0 380 363" fill="none" xmlns="http://www.w3.org/2000/svg">
<mask id="mask0_4_58" style="mask-type:alpha" maskUnits="userSpaceOnUse" x="0" y="0" width="380" height="363">
<g clip-path="url(#clip0_4_58)">
<path d="M80.9608 0.312019C80.367 0.533222 63.6827 9.61389 43.89 20.4812C19.9085 33.6513 7.59111 40.588 6.93205 41.2403C6.36799 41.8784 5.92268 42.6072 5.63174 43.3956C5.13596 44.995 5.10033 278.736 5.60205 280.418C5.78314 281.07 6.37393 282.028 6.9083 282.556C8.20268 283.86 151.38 362.501 153.119 362.881C153.927 363.065 154.832 363.034 155.732 362.796C157.685 362.328 300.488 283.86 301.759 282.579C302.278 282.026 302.872 281.07 303.065 280.42C303.314 279.646 303.406 267.432 303.406 241.696V204.091L338.218 184.991C371.04 166.963 373.05 165.834 373.893 164.598L374.754 163.265V122.759C374.754 78.6661 374.843 81.1476 373.018 79.5538C372.528 79.1397 355.805 69.818 335.819 58.8231L299.517 38.8808H295.483L259.968 58.3637C240.415 69.1062 223.796 78.2918 222.986 78.7909C222.178 79.3014 221.213 80.2429 220.819 80.9264L220.1 82.109L219.94 120.267L219.797 158.438L190.469 174.575C174.337 183.434 160.909 190.768 160.624 190.836C160.105 190.975 160.069 187.342 160.069 117.198V43.3701L159.297 42.1024C158.329 40.5568 162.67 43.0212 119.088 19.0916C82.5402 -0.986841 83.4189 -0.567122 80.9608 0.312019ZM114.558 29.542C129.847 37.9222 142.358 44.8561 142.358 44.9412C142.358 45.0291 128.951 52.4309 112.566 61.4265L82.7569 77.7756L53.0011 61.4293C36.6522 52.4309 23.2542 45.0291 23.2542 44.9412C23.2542 44.8561 36.6285 37.4543 52.9803 28.4785L82.6649 12.1662L84.7133 13.2325C94.6794 18.6407 104.628 24.0772 114.558 29.542ZM327.323 67.1494C343.419 76.0032 356.737 83.3199 356.862 83.439C357.2 83.7311 298.158 116.152 297.35 116.118C296.543 116.095 238.227 83.9722 238.251 83.5808C238.281 83.1356 296.952 50.891 297.546 50.9789C297.816 51.0413 311.223 58.324 327.323 67.1494ZM48.3906 71.8287L76.766 87.4349L76.9292 164.706L77.0777 241.991L77.7694 243.034C78.1316 243.584 78.8144 244.336 79.3131 244.682C79.7822 245.008 95.573 253.604 114.398 263.751L148.598 282.201V314.891C148.598 332.831 148.47 347.55 148.31 347.55C148.188 347.55 118.622 331.388 82.6292 311.602L17.198 275.656L17.1089 165.151L17.0525 54.6798L18.5072 55.4483C19.3474 55.8737 32.778 63.2415 48.3877 71.8259L48.3906 71.8287ZM148.598 126.222V197.43L147.449 198.147C145.89 199.089 89.0625 230.292 88.8695 230.292C88.7805 230.292 88.7092 198.144 88.7092 158.847L88.7449 87.432L118.432 71.1197C134.758 62.144 148.221 54.8613 148.381 54.9152C148.497 54.9832 148.598 87.0747 148.598 126.222ZM261.856 109.844L291.611 126.188V158.586C291.611 189.322 291.579 190.972 291.089 190.793C290.771 190.677 277.308 183.307 261.155 174.419L231.735 158.282V125.896C231.735 108.066 231.83 93.4981 231.919 93.4981C232.046 93.4981 245.507 100.849 261.856 109.844ZM363.28 125.689C363.28 143.425 363.155 158.053 363.031 158.194C362.817 158.52 303.964 190.915 303.59 190.915C303.498 190.915 303.406 176.353 303.406 158.52V126.134L333.094 109.81C349.443 100.849 362.906 93.4981 363.031 93.4981C363.188 93.4981 363.28 107.976 363.28 125.689ZM284.979 201.162L154.39 272.363L95.1663 240.184C95.1663 240.184 225.625 168.106 226.148 168.293L284.979 201.162ZM291.555 243.21L291.454 275.659L226.058 311.607C190.077 331.391 160.503 347.553 160.354 347.553C160.197 347.553 160.072 334.343 160.072 314.894V282.204L225.622 246.494C261.639 226.861 291.234 210.79 291.392 210.756C291.519 210.756 291.576 225.355 291.552 243.207L291.555 243.21Z" fill="#F0513F"/>
</g>
</mask>
<g mask="url(#mask0_4_58)">
<rect x="-292" y="-172" width="896" height="659" fill="#1F2937"/>
</g>
<defs>
<clipPath id="clip0_4_58">
<rect width="380" height="363" fill="white"/>
</clipPath>
</defs>
</svg>
